# xmcd CD database file
#
# Track frame offsets:
#	150
#	18757
#	35748
#	51712
#	70867
#	86819
#	110337
#	126732
#	142547
#	161013
#	179453
#	196126
#	213898
#
# Disc length: 3150 seconds
#
# Revision: 0
# Processed by: cddbd v1.5.1PL2 Copyright (c) Steve Scherf et al.
# Submitted via: CD2WAV32(JP) R3.22
#
DISCID=ba0c4c0d
DTITLE=Angel Note - Utopia - Angel Note Best Collection 2
DYEAR=2006
DGENRE=Game
TTITLE0=Riryka - 桃源郷
TTITLE1=中山マミ - chu-chu-chu
TTITLE2=kala - Utopia
TTITLE3=中山マミ and U-ko - I'll try my best
TTITLE4=中山マミ - 紺色と黒のファンタジー
TTITLE5=榊原ゆい - 絆は銀の糸
TTITLE6=Riryka - REAL
TTITLE7=Shizuku - トビラ～明日への地図～
TTITLE8=Riryka - 空にキス
TTITLE9=kala - 迷宮～Endless Labyrinth～
TTITLE10=ましろゆき - ハートのベルはring ring ring
TTITLE11=中山マミ - LaLa サマー・ホリディズ
TTITLE12=Riryka - 月光花
EXTD=
EXTT0=「The God of Death」OP/Studio Mebius 曲:AngelNote(古池孝浩+井ノ原智) 詞:Riryka
EXTT1=「すぱっちゅ!～如何に私がはきものを愛するようになったのか～」ED/StudioRing 曲:AngelNote(佐々倉マコト+井ノ原智) 詞:中山マミ
EXTT2=「Horizont」ED/アーテル 曲:AngelNote(kala+TK) 詞:kala
EXTT3=「プリンセスうぃっちぃず」OP/ぱじゃまソフト 曲:AngelNote(不知火つばさ) 詞:中山マミ
EXTT4=「すぱっちゅ!～如何に私がはきものを愛するようになったのか～」OP/StudioRing 曲:AngelNote(佐々倉マコト+井ノ原智) 詞:ジロヲ
EXTT5=「Gift」木之坂霧乃キャラソン/ムーンストーン 曲:AngelNote(中山マミ+井ノ原智) 詞:江幡育子
EXTT6=「Horizont」OP/アーテル 曲:AngelNote(不知火つばさ) 詞:Riryka
EXTT7=「突撃天使かのん」OP/RaSeN 曲:AngelNote(古池孝浩) 詞:Shizuku
EXTT8=「スクールなびげーしょん」OP/XWind 曲:AngelNote(内藤侑史+山田屋カズ) 詞:Riryka
EXTT9=「スクールなびげーしょん」ED/XWind 曲:AngelNote(内藤侑史+山田屋カズ) 詞:kala
EXTT10=「はじめてのおてつだい」主題歌/StudioRing 曲:AngelNote(佐々倉マコト+M.C.T.A.) 詞:ましろゆき
EXTT11=「しようよん!コドモ☆ちゃれんじ」主題歌/TEAM-EXODUS 曲:Famishin 編:AngelNote(森まもる) 詞:中山マミ
EXTT12=「The God of Death」ED/StudioMebius 曲:AngelNote(佐々倉マコト+井ノ原智) 詞:Riryka
PLAYORDER=
